<svg xmlns="http://www.w3.org/2000/svg" viewBox="0 0 132.62 72.46"><g id="Layer_2" data-name="Layer 2"><g id="Layer_1-2" data-name="Layer 1"><path d="M87.54,46l2.3,4,1.48,2.57-5.07,2.92a9.55,9.55,0,0,1-4.56,1.32A12,12,0,0,1,77,56.06,13.72,13.72,0,0,1,72.8,53.6a14.3,14.3,0,0,1-3.17-3.77L52.05,19.37l8.16-4.71,5.75,10,3.79,6.56,8,13.83a5.5,5.5,0,0,0,3.54,2.68,5.92,5.92,0,0,0,4.6-.71Z"/><path d="M82.18,46.15l-11-19.09,8.17-4.71,11,19.08Z"/><path d="M111.23,37.66l-2.31-4-1.67,1a6,6,0,0,1-4.6.71,5.56,5.56,0,0,1-3.54-2.69l-8-13.83L90.67,18l7-4L94.4,8.46l-6.94,4-.12-.2-5.74-10L73.43,7,91,37.48a14.35,14.35,0,0,0,7.37,6.24,12.51,12.51,0,0,0,4.69.75,9.78,9.78,0,0,0,4.56-1.32l5.07-2.93Z"/><path d="M56.3,32.7l-8.41,4.85L41.06,25.72A16.07,16.07,0,0,1,39,19.46a16.73,16.73,0,0,1,.43-6.33,17,17,0,0,1,2.76-5.69,16.14,16.14,0,0,1,4.92-4.35l1.55-.89A15.82,15.82,0,0,1,54.85.11a16.84,16.84,0,0,1,6.3.46,16.6,16.6,0,0,1,5.7,2.78,16.29,16.29,0,0,1,4.37,5l6.83,11.84L69.59,25,62.76,13.19a8.82,8.82,0,0,0-2.18-2.52,9.2,9.2,0,0,0-2.83-1.54,8.1,8.1,0,0,0-3.06-.42,6.4,6.4,0,0,0-2.85.85,6.82,6.82,0,0,0-2.25,2.09,7.94,7.94,0,0,0-1.19,2.83,9.39,9.39,0,0,0-.07,3.18,8.86,8.86,0,0,0,1.14,3.2Z"/><path d="M49.18,39.78l8.4-4.85L64.4,46.74A16.2,16.2,0,0,1,66.51,53a16.67,16.67,0,0,1-3.2,12,15.76,15.76,0,0,1-4.92,4.34l-1.55.9a15.81,15.81,0,0,1-6.22,2.08,16.6,16.6,0,0,1-12-3.24,16,16,0,0,1-4.36-4.95l-6.82-11.8,8.47-4.88,6.81,11.8a8.79,8.79,0,0,0,2.17,2.52,9.25,9.25,0,0,0,2.84,1.54,8,8,0,0,0,3.06.42,6.47,6.47,0,0,0,2.85-.85,6.8,6.8,0,0,0,2.24-2.09A7.65,7.65,0,0,0,57.06,58a9.14,9.14,0,0,0,.07-3.18A8.91,8.91,0,0,0,56,51.59Z"/><polygon points="23.46 16.73 23.56 35.85 7.05 26.2 0 30.27 20.52 65.81 29.05 60.89 17.14 40.27 26.16 50.1 34.6 45.22 30.6 32.5 42.5 53.12 51.03 48.2 30.51 12.66 23.46 16.73"/><path d="M132.62,15.37,113,26.69a9,9,0,0,0,4.54,2,7.11,7.11,0,0,0,4.65-.9,5.91,5.91,0,0,0,2.27-2.25A12,12,0,0,0,125.57,23l6.67,1.91a14,14,0,0,1-2.51,4.43,14.52,14.52,0,0,1-3.93,3.3l-1.22.7a14,14,0,0,1-5.48,1.85,15.16,15.16,0,0,1-5.58-.38,14.64,14.64,0,0,1-5-2.42,14.64,14.64,0,0,1-5.66-9.8A14.88,14.88,0,0,1,105.67,12,14.06,14.06,0,0,1,110,8.13l1.22-.71a14.37,14.37,0,0,1,5.46-1.84,14.56,14.56,0,0,1,5.59.41,15,15,0,0,1,5,2.48,14.41,14.41,0,0,1,3.81,4.32Zm-9.85-1.2a9.07,9.07,0,0,0-4.54-2.08,7.08,7.08,0,0,0-7.71,4.45,9.12,9.12,0,0,0-.48,5Z"/></g></g></svg>