<svg xmlns="http://www.w3.org/2000/svg" viewBox="0 0 113.24 94.18"><g id="Layer_2" data-name="Layer 2"><g id="Layer_1-2" data-name="Layer 1"><path d="M65.66,86.71v7.47H59.88a9.49,9.49,0,0,1-4.55-1.12,12,12,0,0,1-3.63-3,14.21,14.21,0,0,1-3.23-9V46.43h9.31V57.77h7.88v7.47H57.78V81a5.46,5.46,0,0,0,1.69,4,5.88,5.88,0,0,0,4.29,1.66Z"/><path d="M17.19,86.71v7.47H11.41a9.49,9.49,0,0,1-4.55-1.12,12,12,0,0,1-3.63-3,14.21,14.21,0,0,1-3.23-9V46.43H9.31V81a5.43,5.43,0,0,0,1.7,4,5.84,5.84,0,0,0,4.28,1.66Z"/><path d="M113.24,79.71H84.91a11.16,11.16,0,0,0,3.63,5.06,8.86,8.86,0,0,0,5.61,1.94,7.36,7.36,0,0,0,3.87-1,14.91,14.91,0,0,0,2.79-2.1l6,6.25a17.58,17.58,0,0,1-5.5,3.22A18.14,18.14,0,0,1,95,94.18H93.27a17.66,17.66,0,0,1-7.1-1.42,18.81,18.81,0,0,1-5.81-3.91,18.1,18.1,0,0,1-3.94-5.77,18.27,18.27,0,0,1,0-14.17,18.55,18.55,0,0,1,9.75-9.78,17.66,17.66,0,0,1,7.1-1.43H95a17.8,17.8,0,0,1,7.07,1.43,18.22,18.22,0,0,1,5.81,3.94,18.8,18.8,0,0,1,3.9,5.84A17.8,17.8,0,0,1,113.24,76Zm-9.92-7.47a11.41,11.41,0,0,0-3.63-5.09,8.66,8.66,0,0,0-5.54-2,8.77,8.77,0,0,0-5.61,2,11.41,11.41,0,0,0-3.63,5.09Z"/><path d="M28.51,60.1h8.64v34H28.51Z"/><circle cx="32.83" cy="50.75" r="4.32"/><path d="M9.86,20.18V39.9H0V0H8.15L18.81,19.66,29.47,0h8.15V39.9H27.76V20.18L22.17,30.44H15.44Z"/><path d="M74.94,0V25c0,9.51-5.81,15.61-15.16,15.61S44.62,34.48,44.62,25V0H54.77V24.39c0,5,1.65,7.3,5,7.3s5-2.28,5-7.3V0Z"/><path d="M91.92,18.52V39.9H82V0h8.6l12.71,21.37V0h10V39.9h-8.61Z"/></g></g></svg>