<svg version="1" xmlns="http://www.w3.org/2000/svg" width="1205.333" height="1205.333" viewBox="0 0 904.000000 904.000000"><path d="M.2 235.2l.3 159.3h78l.2-75.5c0-41.5.2-76.9.2-78.5.1-2.6.7-1.9 4.7 5.5 2.5 4.7 6.3 11.6 8.4 15.5 7.5 13.9 10.3 19.1 12.8 23.5 1.3 2.5 4.2 7.6 6.2 11.5 2.1 3.8 5.6 10.4 7.8 14.5l4.1 7.5h54.2l2.7-5c1.5-2.8 2.9-5.2 3.2-5.5.6-.6 2.6-4.3 7.8-14.5 2-3.9 4.2-7.8 5.1-8.8.8-.9 1-1.7.5-1.7s-.4-.4.2-.8c.5-.4 1.8-2.3 2.8-4.2.9-1.9 3-5.8 4.5-8.5 6.2-11.3 12.7-23.2 14.6-26.8 1.1-2 2.2-3.7 2.5-3.7.3 0 .6 34.7.5 77.1 0 50.3.3 77.3 1 77.8.6.4 18.3.7 39.4.7l38.5-.1V236.2c.1-87.1-.2-158.8-.5-159.3s-14-.8-32.8-.7l-32.3.3-3.7 7.2c-2 3.9-4.2 7.8-4.9 8.6-.6.7-.9 1.7-.5 2 .3.4.1.7-.5.7-.7 0-1.2.4-1.2.9s-2 4.4-4.3 8.7c-2.4 4.4-6.4 11.7-8.9 16.4-4.5 8.4-7.8 14.6-15.8 29-2.2 4.1-5.1 9.5-6.3 12-1.2 2.5-2.4 4.7-2.7 5-.5.5-2.1 3.4-7.4 13.5-1.7 3.3-3.5 6.3-4.1 6.7-.5.4-.6.8-.1.8s.4.6-.2 1.2c-.5.7-1.9 2.9-2.9 4.8-4 7.3-11.4 20.8-15.7 29-4.7 8.9-6 10.2-6.9 7.3-.3-1-1.7-3.6-3-5.8-1.3-2.2-4.4-7.8-6.9-12.5s-5.4-10.1-6.5-12c-1.1-1.9-3.7-6.7-5.7-10.5-2.1-3.9-4.3-7.6-4.8-8.3-.6-.6-.7-1.2-.3-1.2.5 0 .2-.8-.6-1.8-.8-.9-2.1-3.1-3-4.7-.9-1.7-3-5.5-4.7-8.5-1.6-3-4.5-8.4-6.4-12-5.1-9.6-10.8-20.1-12.8-23.5-1-1.7-3.8-6.8-6.3-11.5-2.4-4.7-5.3-10.1-6.4-12-1.1-1.9-4.4-8-7.3-13.5-2.9-5.5-6.1-11.4-7-13l-1.7-3-32.6-.3L0 76l.2 159.2zM356.3 180.7c0 57.7.4 107.9.8 111.8 1 8.5 1.7 14 1.9 14 .2 0 .6 1.9 1.4 6.5.2 1.4 1.6 5.9 3.1 10 1.4 4.1 2.8 7.9 2.9 8.5.6 2.7 8.2 17 11.2 21 11.1 15.4 22.1 25.2 37.4 33.3 6.1 3.3 21.9 9.6 25.3 10.1.4 0 .8.1 1 .2.9.3 8.5 1.7 13.2 2.4 12.5 2.1 35.3 2.1 45.5 0 1.3-.2 4.2-.7 6.4-1.1 2.2-.3 4.3-.7 4.7-.9.3-.2 2.1-.7 3.9-1 4.4-.8 18-6.1 24.8-9.7 8.4-4.4 17.3-11 24.6-18.4 6.6-6.6 15.6-18.4 15.6-20.3 0-.6.3-1.1.8-1.1.4 0 1.4-1.5 2.1-3.3.8-1.7 2.7-6 4.3-9.3 1.6-3.4 3.1-7 3.3-8 .3-1.1 1.3-4.9 2.4-8.7 2.5-8.6 3.4-13.5 4.7-26.2.5-5.2 1-205.8.5-213.3-.1-.9-8.9-1.2-40.6-1.2H517l-.1 102.7c0 56.6-.3 104.8-.5 107.3-1.9 18.8-9.8 33.6-21 39-5.9 2.9-8.6 3.4-18.4 3.4-13.7 0-20-2.4-27.3-10.6-5.1-5.7-9.2-15.6-11.3-27-.4-1.8-.8-50.3-1-107.8-.2-57.5-.3-105.1-.4-105.8 0-.9-8.8-1.2-40.4-1.2h-40.3v104.7zM654.6 234.7c.1 87.4.2 159 .3 159.4.1.4 76.1.5 78.2 0 .4 0 .6-38.1.5-84.6 0-46.5.1-84.5.4-84.5.3 0 13.1 21.2 28.5 47.1 15.4 25.9 28.5 47.6 29 48.2.6.7 1.6 2.3 2.3 3.7.7 1.4 2 3.8 3.1 5.5 4.7 7.7 32.6 54.4 34.4 57.5 4.6 8.3.7 7.5 38.7 7.5l34 .1V76h-79.5l.1 85c0 46.8-.1 84.8-.3 84.6-1-1-11.3-18.9-11.3-19.7 0-.5-.4-.9-.8-.9-.5 0-1.6-1.5-2.5-3.3-1.9-3.6-1.7-3.3-14.1-24.2-4.9-8.3-10.1-16.8-11.5-19-1.4-2.2-2.6-4.2-2.6-4.5 0-.3-.8-1.6-1.6-3-2.4-3.6-12.3-20.3-12.9-21.5-1.5-3-27.5-46.2-28.6-47.6-.8-.9-1.2-1.8-.9-2.1.3-.3-.1-1.1-1-1.8-.8-.7-1.5-1.9-1.5-2.6 0-.8-.4-1.4-.9-1.4s-1.1-.8-1.4-1.8c-.7-2-3.7-7.1-5.3-8.8-.6-.7-1.7-2.6-2.4-4.3l-1.2-3.1H654.5l.1 158.7zM.9 447.1c-1.2.7-.6 289.6.5 295.3.4 2.1 1.7 6.8 2.7 10.5 1.1 3.6 2.1 7.4 2.4 8.3.8 3.5 7.7 17.1 12.1 24 10.7 16.7 25.7 29.5 43.4 37.1 11 4.7 13.3 5 44.8 5.5l30.2.4.1-4.4c.1-5.1 0-54.1 0-54.9-.1-.3-1.6-.5-3.3-.4-1.8.1-4.3-.2-5.5-.7-1.3-.4-2.5-.3-2.8.3-.4.5-1 .7-1.4.4-.5-.2-3.7-.7-7.1-.9-7.5-.6-16.7-3.3-19-5.6-.3-.3-1.7-1.2-3.1-2-7.4-4.2-14.7-13.4-18.2-22.8-2.1-5.7-2.1-6.1-2.2-147.4-.1-78-.5-142.1-.8-142.5-.9-.8-71.5-1-72.8-.2zM388.7 446.8c-1.6.3-1.7 9.5-1.4 146.5.1 80.4.7 147.8 1.1 149.7 6.6 28.6 19.4 50.5 38.8 66.2 9.3 7.6 21.5 14 31.3 16.4 1.7.4 3.7.9 4.5 1.2.8.2 14.9.7 31.3.9 24.3.4 29.7.2 29.8-.9.4-7.2 0-56.7-.4-57.5-.3-.5-2.3-.9-4.4-.8-2.1 0-4.6-.3-5.5-.7-1.2-.6-1.8-.5-1.8.2 0 .6-.5.8-1 .5-.6-.4-3.9-.8-7.3-1-3.4-.2-7.3-.8-8.7-1.3-1.4-.5-2.9-1-3.5-1.2-2.1-.4-8.2-3.5-11.5-5.9-4.1-3.1-11-10-11-11.1 0-.5-.6-1.5-1.2-2.2-.7-.7-1.9-2.9-2.7-4.8-3.7-9.6-3.9-13.6-3.9-79.5l.1-64.5h30.8c21 0 31-.3 31.4-1.1.9-1.3 1.2-52.9.4-52.9-.3 0-.4-1.3-.1-2.9l.4-3h-59.8l-3.2-.1v-44.5c.1-24.5-.2-44.8-.5-45.2-.7-.6-68.8-1.1-72-.5zM252 448.2c-8 3.4-9.9 4.6-14.3 9-8.6 8.7-11.9 20.5-9 32 4.3 16.8 18.8 27.3 36.1 26.2 5.8-.3 16.1-4 16.9-6 .3-.8.9-1.4 1.4-1.4.9 0 4.8-3.8 7.4-7.2 1.5-2 4.5-8.9 5.2-12.3.6-2.9.6-12.4 0-15.5-.9-4.6-6.2-13.3-10.2-16.8-7.4-6.5-12.7-8.6-22.5-8.8-4.7-.1-9.6.3-11 .8zM741.7 536.6c-.1.1-4 .5-8.7.8-27.5 1.7-53.5 11.7-76.9 29.4-6.7 5.1-22 19.9-21.3 20.7.3.3.1.5-.5.5-1 0-13.4 16.9-15.9 21.5-7.3 13.8-9.5 18.7-13.2 30.5-3.5 11.1-4.2 14.6-5.7 28-.9 7.3-.9 26.1 0 30.9.3 1.7.8 4.6 1.1 6.3.3 1.8.7 4.2.9 5.3 1.3 7.5 2.1 10.8 4.7 17.9 1.5 4.5 2.9 8.5 3.1 9.1 1.1 4.4 16 30.4 18.7 32.5.3.3 1.3 1.5 2.1 2.7 2.6 3.9 13.4 14.8 20.1 20.5 8.8 7.5 17.1 13 28.1 18.7 8 4.2 22.2 10.1 22.2 9.2 0-.1 1.4.3 3 .9 4.2 1.6 8.1 2.5 20 4.5 8.2 1.4 50.9 1.5 56.8.1 1.5-.3 3.7-.8 5-1 11.8-2.2 26.8-7.2 36.5-12.1 3.7-1.9 7.9-3.9 9.5-4.6 1.5-.6 2.7-1.5 2.7-2s.5-.9 1.1-.9c1.2 0 14.9-9.7 16.1-11.4.4-.6.4-1.6 0-2.3-.6-1-26.8-28.4-42.5-44.4-3.6-3.7-5.7-4.8-5.7-3.1 0 .9-9.4 8.3-16 12.7-7.4 5-15.7 8.4-24.2 10-1 .2-2.3.7-2.8 1-.6.3-1 .1-1-.5 0-.7-.6-.8-1.7-.2-3 1.4-18.6.2-24-1.9-1.3-.5-2.3-.7-2.3-.4 0 .5-8.3-2.9-13.7-5.8-2.4-1.2-4.3-2.5-4.3-2.9 0-.5-.5-.8-1.1-.8-2 0-12-8.7-17.9-15.6-5.6-6.4-13.4-19.7-15.4-25.9-.6-2-.2-2 112.2-2h112.7l-.1-22.5c0-12.4-.3-24.3-.6-26.5-1.1-7.3-2.8-14.7-4.9-21.9-1.2-3.9-2.1-7.2-2-7.4.1-.1-.5-1.6-1.4-3.2-.8-1.7-2.2-4.3-3-6-.9-1.6-1.6-3.2-1.5-3.5.2-2.3-13.4-24.5-19.4-31.5-7.9-9.2-22.2-22.3-30.7-27.9-21.7-14.5-42.8-22.2-67.9-24.7-5.3-.5-29.9-1.1-30.3-.8zM767 598c2.5.7 5 1.3 5.5 1.5 2.2.5 7.3 2.7 12 5.1 15.6 8.2 30.9 25.5 38.4 43.5l1.9 4.6h-73.4c-40.4 0-73.4-.1-73.4-.4 0-.2 1.3-3.3 3-6.9 8.3-18.3 23.8-34.5 40.5-42.4 6.4-3 15.1-5.7 20-6.2 6.3-.7 21.2 0 25.5 1.2zM227.9 556.5c-.6 4.7-.4 268.4.2 269.5.6 1.3 5.4 1.5 34.6 1.5l33.8-.1.1-135.3V556.8l-2.4-.9c-1.3-.5-3-.5-3.9-.1-.8.5-3.3.6-5.4.2-2.2-.4-4.2-.3-4.5.1-.3.5-1 .6-1.7.2-1.4-.8-19.2-.7-20.6.2-.6.3-1.1.2-1.1-.2 0-.9-6.6-1-7.5-.1-.4.3-2.1.2-3.9-.2-1.9-.4-4-.4-4.7.1-.7.4-1.7.5-2.3.2-1.6-1-10.6-.8-10.7.2z"/></svg>